# xmcd
#
# Track frame offsets:
#	150
#	34754
#	69547
#	89598
#	119369
#	136558
#
# Disc length: 2384 seconds
#
# Revision: 0
# Processed by: cddbd v1.5.2PL0 Copyright (c) Steve Scherf et al.
# Submitted via: EasyCDDAExtractor 16.0.8.2
#
DISCID=4b094e06
DTITLE=Γράψας Νίκος - Στις θάλασσες της Ιωνίας 1
DYEAR=1995
DGENRE=Παραδοσιακή
TTITLE0=Γράψας Νίκος - Αλατσατιανέ μου αγέρα [Μ. Ασία]
TTITLE1=Άνευ ερμηνευτού - Ζεϊμπέκικος [Μ. Ασία]
TTITLE2=Γράψας Νίκος - Στό 'πα και στο ξαναλέω [Μ. Ασία]
TTITLE3=Γράψας Νίκος - Στον Αρτεμώνα [Σίφνος]
TTITLE4=Μοράβας Γιάννης - Ας κάνω σίδερο καρδιά [Χίος]
TTITLE5=Μοράβας Γιάννης-Γράψας Νίκος - Τούρνα [Αστυπάλαια]
EXTD=
EXTT0=
EXTT1=
EXTT2=
EXTT3=
EXTT4=
EXTT5=
PLAYORDER=
